<?xml version="1.0" encoding="utf-8"?>
<!-- Generator: Adobe Illustrator 15.0.0, SVG Export Plug-In  -->
<!DOCTYPE svg PUBLIC "-//W3C//DTD SVG 1.1//EN" "http://www.w3.org/Graphics/SVG/1.1/DTD/svg11.dtd" [
	<!ENTITY ns_flows "http://ns.adobe.com/Flows/1.0/">
]>
<svg version="1.1"
	 xmlns="http://www.w3.org/2000/svg" xmlns:xlink="http://www.w3.org/1999/xlink" xmlns:a="http://ns.adobe.com/AdobeSVGViewerExtensions/3.0/"
	 x="0px" y="0px" width="30px" height="30px" viewBox="-0.369 -0.204 30 30" enable-background="new -0.369 -0.204 30 30"
	 xml:space="preserve">
<defs>
</defs>
<path fill="#C0B036" d="M8.251,19.357c2.019-0.742,3.258-2.264,4.311-3.972L8.92,7.367C8.762,7.02,8.749,6.632,8.883,6.275
	c0.134-0.357,0.399-0.64,0.746-0.798c0.187-0.085,0.385-0.128,0.59-0.128c0.434,0,0.837,0.197,1.104,0.523
	c1.539-0.132,2.84-0.87,4.1-1.82c-1.034-1.034-2.068-2.068-3.103-3.102c-0.122-0.122-0.375-0.178-0.557-0.117
	c-5.5,1.846-5.354,9.337-10.725,11.313l-0.198-0.198c-0.192-0.192-0.504-0.192-0.697,0c-0.193,0.192-0.193,0.504,0,0.697
	l16.803,16.804c0.096,0.096,0.223,0.145,0.349,0.145s0.252-0.049,0.348-0.145c0.193-0.193,0.193-0.504,0-0.697L8.251,19.357z"/>
<path fill="#C0B036" d="M25.28,0.309c-0.071-0.157-0.288-0.298-0.48-0.305C24.717,0.001,24.634,0,24.553,0
	c-3.536,0-5.839,2.713-8.464,4.719c-1.539,1.176-3.188,2.108-5.26,2.108c-0.016,0-0.03,0-0.045,0l-0.116-0.255
	c-0.083-0.181-0.261-0.289-0.449-0.289c-0.068,0-0.137,0.014-0.203,0.044C9.768,6.44,9.658,6.732,9.771,6.98l3.371,7.42
	l6.457,14.216c0.057,0.123,0.157,0.213,0.275,0.258c0.056,0.02,0.114,0.031,0.174,0.031c0.068,0,0.137-0.014,0.204-0.045
	c0.247-0.111,0.356-0.404,0.244-0.652l-5.494-12.096c0.015,0,0.03,0,0.044,0c5.609,0,8.116-6.827,13.725-6.827
	c0.081,0,0.163,0.001,0.246,0.004c0.006,0,0.011,0,0.016,0c0.182,0,0.276-0.11,0.207-0.263C27.92,6.121,26.6,3.215,25.28,0.309z"/>
</svg>
