<?xml version="1.0" encoding="utf-8"?>
<!-- Generator: Adobe Illustrator 20.1.0, SVG Export Plug-In . SVG Version: 6.00 Build 0)  -->
<svg version="1.1" id="Layer_1" xmlns="http://www.w3.org/2000/svg" xmlns:xlink="http://www.w3.org/1999/xlink" x="0px" y="0px"
	 viewBox="0 0 60 60" style="enable-background:new 0 0 60 60;" xml:space="preserve">
<style type="text/css">
	.st0{opacity:0.5;fill:#FFFFFF;}
</style>
<path class="st0" d="M57.5,54.6L40.2,37.3c3.3-4,5.3-9,5.3-14.5C45.5,10.3,35.2,0,22.8,0C10.3,0,0,10.3,0,22.8
	c0,12.4,10.3,22.8,22.8,22.8c5.4,0,10.4-1.9,14.3-5.2l17.2,17.2c0.4,0.4,0.8,0.4,1.7,0.4c0.8,0,1.2,0,1.7-0.4
	C58.3,56.7,58.3,55.4,57.5,54.6L57.5,54.6z M22.8,41.4c-10.3,0-18.6-8.3-18.6-18.6c0-10.3,8.3-18.6,18.6-18.6
	c10.3,0,18.6,8.3,18.6,18.6C41.4,33.1,33.1,41.4,22.8,41.4L22.8,41.4z"/>
<path class="st0" d="M29,20.7h-4.1v-4.1c0-1.2-0.8-2.1-2.1-2.1c-1.2,0-2.1,0.8-2.1,2.1v4.1h-4.1c-1.2,0-2.1,0.8-2.1,2.1
	c0,1.2,0.8,2.1,2.1,2.1h4.1V29c0,1.2,0.8,2.1,2.1,2.1c1.2,0,2.1-0.8,2.1-2.1v-4.1H29c1.2,0,2.1-0.8,2.1-2.1
	C31,21.5,30.2,20.7,29,20.7L29,20.7z"/>
</svg>
